P3
16 16
255
255 255 10   255 255 255   255 255 255   255 255 255   255 255 255   255 255 255   255 255 255   255 255 255   255 255 255   255 255 255   255 255 255   255 255 255   255 255 255   255 255 255   255 255 255   255 255 255   
255 255 255   255 255 255   255 255 255   255 255 255   255 255 255   255 255 255   255 255 255   255 255 255   255 255 255   255 255 255   255 255 255   255 255 255   255 255 255   255 255 255   255 255 255   255 255 255   
255 255 255   255 255 255   255 255 255   255 255 255   255 255 255   255 255 255   255 255 255   255 255 255   255 255 255   255 255 255   255 255 255   255 255 255   255 255 255   255 255 255   255 255 255   255 255 255   
255 255 255   255 255 255   255 255 255   255 255 255   255 255 255   255 255 255   255 255 255   255 255 255   255 255 255   255 255 255   255 255 255   255 255 255   255 255 255   255 255 255   255 255 255   255 255 255   
255 255 255   255 255 255   255 255 255   255 255 255   255 255 255   255 255 255   255 255 255   255 255 255   255 255 255   255 255 255   255 255 255   255 255 255   255 255 255   255 255 255   255 255 255   255 255 255   
255 255 255   255 255 255   255 255 255   255 255 255   255 255 255   255 255 255   255 255 255   255 255 255   255 255 255   255 255 255   255 255 255   255 255 255   255 255 255   255 255 255   255 255 255   255 255 255   
255 255 255   255 255 255   255 255 255   255 239 255   255 112 239   255 32 112   255 32 32   255 128 32   255 255 128   255 255 255   255 255 255   255 255 255   255 255 255   255 255 255   255 255 255   255 255 255   
255 255 255   255 255 255   255 255 255   255 111 255   255 0 111   255 0 0   255 0 0   255 0 0   255 111 0   255 255 111   255 255 255   255 255 255   255 255 255   255 255 255   255 255 255   255 255 255   
255 255 255   255 255 255   255 255 255   255 15 255   255 0 15   255 0 0   255 0 0   255 0 0   255 32 0   255 255 32   255 255 255   255 255 255   255 255 255   255 255 255   255 255 255   255 255 255   
255 255 255   255 255 255   255 255 255   255 15 255   255 0 15   255 0 0   255 0 0   255 0 0   255 31 0   255 255 31   255 255 255   255 255 255   255 255 255   255 255 255   255 255 255   255 255 255   
255 255 255   255 255 255   255 255 255   255 127 255   255 0 127   255 0 0   255 0 0   255 0 0   255 127 0   255 255 127   255 255 255   255 255 255   255 255 255   255 255 255   255 255 255   255 255 255   
255 255 255   255 255 255   255 255 255   255 255 255   255 111 255   255 31 111   255 31 31   255 127 31   255 255 127   255 255 255   255 255 255   255 127 255   255 0 127   255 127 0   255 255 127   255 255 255   
255 255 255   255 255 255   255 255 255   255 255 255   255 255 255   255 255 255   255 255 255   255 255 255   255 255 255   255 255 255   255 255 255   255 0 255   255 0 0   255 0 0   255 255 0   255 255 255   
255 255 255   255 255 255   255 255 255   255 255 255   255 255 255   255 255 255   255 255 255   255 255 255   255 255 255   255 255 255   255 255 255   255 127 255   255 0 127   255 127 0   255 255 127   255 255 255   
255 255 255   255 255 255   255 255 255   255 255 255   255 255 255   255 255 255   255 255 255   255 255 255   255 255 255   255 255 255   255 255 255   255 255 255   255 255 255   255 255 255   255 255 255   255 255 255   
255 255 255   255 255 255   255 255 255   255 255 255   255 255 255   255 255 255   255 255 255   255 255 255   255 255 255   255 255 255   255 255 255   255 255 255   255 255 255   255 255 255   255 255 255   255 255 255   
